<?xml version="1.0" encoding="utf-8"?>
<svg version="1.1" id="Layer_1" x="0px" y="0px" viewBox="0 0 252.857 251.357" style="enable-background:new 0 0 792 612;" xmlns="http://www.w3.org/2000/svg">
  <g>
    <g>
      <path d="M 125.748 249.228 C 57.308 249.228 1.638 193.548 1.638 125.118 C 1.638 56.688 57.318 1.008 125.748 1.008 C 194.178 1.008 249.858 56.688 249.858 125.118 C 249.858 193.548 194.188 249.228 125.748 249.228 Z M 125.748 16.318 C 65.758 16.318 16.958 65.118 16.958 125.108 C 16.958 185.098 65.758 233.898 125.748 233.898 C 185.738 233.898 234.538 185.098 234.538 125.108 C 234.538 65.118 185.738 16.318 125.748 16.318 Z"/>
    </g>
    <g>
      <path d="M 125.748 187.938 C 91.108 187.938 62.928 159.758 62.928 125.118 C 62.928 90.478 91.108 62.298 125.748 62.298 C 148.108 62.298 168.958 74.328 180.158 93.708 C 182.278 97.368 181.028 102.058 177.358 104.178 C 173.698 106.298 169.008 105.038 166.888 101.378 C 158.408 86.728 142.638 77.618 125.738 77.618 C 99.548 77.618 78.238 98.928 78.238 125.118 C 78.238 151.308 99.548 172.618 125.738 172.618 C 142.648 172.618 158.408 163.518 166.888 148.868 C 169.008 145.208 173.698 143.958 177.358 146.068 C 181.018 148.188 182.268 152.878 180.158 156.538 C 168.958 175.898 148.108 187.938 125.748 187.938 Z"/>
    </g>
    <path d="M 189.958 57.188 C 160.738 29.608 117.298 23.748 81.858 42.598 C 46.418 61.448 26.998 100.748 33.538 140.388 C 33.958 142.928 35.578 144.968 37.718 146.018 C 39.098 146.698 40.708 146.968 42.338 146.698 C 46.518 146.008 49.338 142.068 48.648 137.898 C 43.188 104.748 59.418 71.888 89.048 56.128 C 118.678 40.368 154.998 45.268 179.438 68.328 C 182.518 71.248 187.368 71.098 190.268 68.018 C 193.168 64.938 193.028 60.088 189.958 57.188 Z"/>
    <path d="M 218.068 110.458 C 217.408 106.278 213.488 103.428 209.308 104.088 C 205.128 104.748 202.278 108.668 202.938 112.848 C 208.138 145.798 191.868 178.458 162.448 194.108 C 133.028 209.758 96.858 204.998 72.438 182.258 C 69.338 179.368 64.488 179.548 61.608 182.638 C 58.728 185.738 58.898 190.588 61.998 193.468 C 68.808 199.818 76.388 204.988 84.448 208.948 C 110.938 221.978 142.668 221.978 169.638 207.628 C 204.828 188.918 224.288 149.868 218.068 110.458 Z"/>
  </g>
</svg>