<?xml version="1.0" encoding="utf-8"?>
<!-- Generator: Adobe Illustrator 25.2.0, SVG Export Plug-In . SVG Version: 6.00 Build 0)  -->
<svg version="1.1" id="Layer_1" xmlns="http://www.w3.org/2000/svg" xmlns:xlink="http://www.w3.org/1999/xlink" x="0px" y="0px"
	 viewBox="0 0 792 612" style="enable-background:new 0 0 792 612;" xml:space="preserve">
<g>
	<g>
		<path d="M396.36,429.81c-68.44,0-124.11-55.68-124.11-124.11s55.68-124.11,124.11-124.11s124.11,55.68,124.11,124.11
			S464.8,429.81,396.36,429.81z M396.36,196.9c-59.99,0-108.79,48.8-108.79,108.79s48.8,108.79,108.79,108.79
			s108.79-48.8,108.79-108.79S456.35,196.9,396.36,196.9z"/>
	</g>
	<g>
		<path d="M396.36,368.52c-34.64,0-62.82-28.18-62.82-62.82s28.18-62.82,62.82-62.82c22.36,0,43.21,12.03,54.41,31.41
			c2.12,3.66,0.87,8.35-2.8,10.47c-3.66,2.12-8.35,0.86-10.47-2.8c-8.48-14.65-24.25-23.76-41.15-23.76
			c-26.19,0-47.5,21.31-47.5,47.5s21.31,47.5,47.5,47.5c16.91,0,32.67-9.1,41.15-23.75c2.12-3.66,6.81-4.91,10.47-2.8
			c3.66,2.12,4.91,6.81,2.8,10.47C439.57,356.48,418.72,368.52,396.36,368.52z"/>
	</g>
	<path d="M460.57,237.77c-29.22-27.58-72.66-33.44-108.1-14.59c-35.44,18.85-54.86,58.15-48.32,97.79c0.42,2.54,2.04,4.58,4.18,5.63
		c1.38,0.68,2.99,0.95,4.62,0.68c4.18-0.69,7-4.63,6.31-8.8c-5.46-33.15,10.77-66.01,40.4-81.77c29.63-15.76,65.95-10.86,90.39,12.2
		c3.08,2.92,7.93,2.77,10.83-0.31C463.78,245.52,463.64,240.67,460.57,237.77z"/>
	<path d="M488.68,291.04c-0.66-4.18-4.58-7.03-8.76-6.37c-4.18,0.66-7.03,4.58-6.37,8.76c5.2,32.95-11.07,65.61-40.49,81.26
		c-29.42,15.65-65.59,10.89-90.01-11.85c-3.1-2.89-7.95-2.71-10.83,0.38c-2.88,3.1-2.71,7.95,0.39,10.83
		c6.81,6.35,14.39,11.52,22.45,15.48c26.49,13.03,58.22,13.03,85.19-1.32C475.44,369.5,494.9,330.45,488.68,291.04z"/>
</g>
</svg>
