<svg version="1.1" xmlns="http://www.w3.org/2000/svg" xmlns:xlink="http://www.w3.org/1999/xlink" width="1410" height="1541"><desc>title%20Stellarcarbon%20Offsetting%20Interaction%0A%0Aactor%20Offsetter%0Aparticipant%20Website%0Aparticipant%20Offsetting%20App%0Aparticipant%20Wallet%20App%0Aparticipant%20Stellarcarbon%20API%0Adatabase%20Stellar%20Horizon%0A%2F%2Fentity%20Verra%20Registry%0A%0AOffsetter-%3EWebsite%3AAnna%20selects%20an%20**offset%20project**%20on%20stellarcarbon.io%0AWebsite--%3EOffsetter%3AOffsetting%20App%20deeplink%20for%20the%20project%0AOffsetter-%3EOffsetting%20App%3AVisit%20and%20accept%20terms%20of%20use%0AOffsetting%20App--%3EOffsetter%3AList%20of%20supported%20wallets%0AOffsetter-%3EOffsetting%20App%3ASelect%20wallet%0AOffsetting%20App-%3EWallet%20App%3ARequest%20public%20key%0AWallet%20App--%3EOffsetting%20App%3ASession%20approval%20and%20**Stellar%20public%20key**%0AOffsetter-%3EOffsetting%20App%3A%5Boptional%5D%20Provide%20name%20and%20**email**%0AOffsetting%20App-%3EOffsetting%20App%3AStore%20name%20and%20email%20in%20browser%20localStorage%0AOffsetter-%3EOffsetting%20App%3ASpecify%20amount%20in%20**USD%20or%20tonnes**%0AOffsetting%20App-%3EStellarcarbon%20API%3AGET%20Carbon%20quote%0AStellarcarbon%20API-%3EStellar%20Horizon%3AGET%20CARBON%20asset%20state%0AStellar%20Horizon--%3EStellarcarbon%20API%3ACARBON%20asset%20state%0AStellarcarbon%20API--%3EOffsetting%20App%3ACarbon%20price%20in%20USD%2Ftonne%0AOffsetting%20App--%3EOffsetter%3ADisplay%20number%20of%20tonnes%20and%20total%20cost%0AOffsetter-%3EOffsetting%20App%3AProvide%20an%20offsetting%20**reason%20or%20message**%2C%20and%20confirm%0AOffsetting%20App-%3EStellarcarbon%20API%3APOST%20Sink%20Carbon%0AStellarcarbon%20API-%3EStellar%20Horizon%3AGET%20CARBON%20asset%20state%0AStellar%20Horizon--%3EStellarcarbon%20API%3ACARBON%20asset%20state%0AStellarcarbon%20API--%3EOffsetting%20App%3APre-signed%20transaction%20(XDR%20%2B%20metadata)%0AOffsetting%20App--%3EOffsetter%3ADisplay%20transaction%20details%0AOffsetter-%3EOffsetting%20App%3AAccept%20the%20proposed%20transaction%0AOffsetting%20App-%3EWallet%20App%3ARequest%20to%20sign%20XDR%0AWallet%20App-%3EOffsetter%3ADisplay%20and%20request%20to%20sign%20XDR%0AOffsetter--%3EWallet%20App%3AProvide%20signature%0AWallet%20App--%3EOffsetting%20App%3A%20Fully%20signed%20transaction%20XDR%0AOffsetting%20App-%3EStellar%20Horizon%3APOST%20fully%20signed%20transaction%20XDR%0AStellar%20Horizon--%3EOffsetting%20App%3ATransaction%20successful%0AOffsetting%20App--%3EOffsetter%3AShow%20that%20the%20transaction%20was%20successful</desc><defs/><g><g/><g/><g/><g/><g/><g/><g/><g/><g/><g/><g/><g/><g/><g/><g/><g/><g/><g/><g/><g/><g/><g/><g/><g/><g/><g/><g/><g/><g/><g/><g/><g/><g/><g/><g/><g/><g><rect fill="white" stroke="none" x="0" y="0" width="1410" height="1541"/></g><g><text fill="black" stroke="none" font-family="sans-serif" font-size="16.5pt" font-style="normal" font-weight="normal" text-decoration="normal" x="522.4115170484822" y="24.50280495" text-anchor="start" dominant-baseline="alphabetic" xml:space="preserve">Stellarcarbon Offsetting Interaction</text></g><g/><g><path fill="none" stroke="black" paint-order="fill stroke markers" d=" M 38.9842692067627 128.884754037 L 38.9842692067627 1541.879839487" stroke-miterlimit="10" stroke-width="1.3612669416666667" stroke-dasharray="12.565541,5.445067766666667"/><path fill="none" stroke="black" paint-order="fill stroke markers" d=" M 424.01147088599447 128.884754037 L 424.01147088599447 1541.879839487" stroke-miterlimit="10" stroke-width="1.3612669416666667" stroke-dasharray="12.565541,5.445067766666667"/><path fill="none" stroke="black" paint-order="fill stroke markers" d=" M 633.6167427156006 128.884754037 L 633.6167427156006 1541.879839487" stroke-miterlimit="10" stroke-width="1.3612669416666667" stroke-dasharray="12.565541,5.445067766666667"/><path fill="none" stroke="black" paint-order="fill stroke markers" d=" M 979.7312719264079 128.884754037 L 979.7312719264079 1541.879839487" stroke-miterlimit="10" stroke-width="1.3612669416666667" stroke-dasharray="12.565541,5.445067766666667"/><path fill="none" stroke="black" paint-order="fill stroke markers" d=" M 1140.5532147460042 128.884754037 L 1140.5532147460042 1541.879839487" stroke-miterlimit="10" stroke-width="1.3612669416666667" stroke-dasharray="12.565541,5.445067766666667"/><path fill="none" stroke="black" paint-order="fill stroke markers" d=" M 1352.0637538275796 128.884754037 L 1352.0637538275796 1541.879839487" stroke-miterlimit="10" stroke-width="1.3612669416666667" stroke-dasharray="12.565541,5.445067766666667"/></g><g><g><path fill="white" stroke="black" paint-order="fill stroke markers" d=" M 48.295335087762695 59.786844078 A 9.311065881 9.311065881 0 1 1 48.295330432230145 59.77753301367084 M 38.9842692067627 69.097909959 L 38.9842692067627 89.026857985 M 27.2229228307627 76.285399411 L 50.745615582762696 76.285399411 M 38.9842692067627 89.026857985 L 27.2229228307627 107.648989747 M 38.9842692067627 89.026857985 L 50.745615582762696 107.648989747" stroke-miterlimit="10" stroke-width="2.7769845610000004" stroke-dasharray=""/></g><g><g/><text fill="black" stroke="none" font-family="sans-serif" font-size="11pt" font-style="normal" font-weight="normal" text-decoration="normal" x="8.167601650000002" y="123.98419304699999" text-anchor="start" dominant-baseline="alphabetic" xml:space="preserve">Offsetter</text></g><path fill="none" stroke="none"/><g><path fill="white" stroke="black" paint-order="fill stroke markers" d=" M 378.837774542555 84.779705127 L 469.1851672294339 84.779705127 L 469.1851672294339 128.884754037 L 378.837774542555 128.884754037 L 378.837774542555 84.779705127 Z" stroke-miterlimit="10" stroke-width="2.613632528" stroke-dasharray=""/></g><g><g/><text fill="black" stroke="none" font-family="sans-serif" font-size="11pt" font-style="normal" font-weight="normal" text-decoration="normal" x="396.561470123055" y="112.549550737" text-anchor="start" dominant-baseline="alphabetic" xml:space="preserve">Website</text></g><path fill="none" stroke="none"/><g><path fill="white" stroke="black" paint-order="fill stroke markers" d=" M 565.7347143103935 84.779705127 L 701.4987711208076 84.779705127 L 701.4987711208076 128.884754037 L 565.7347143103935 128.884754037 L 565.7347143103935 84.779705127 Z" stroke-miterlimit="10" stroke-width="2.613632528" stroke-dasharray=""/></g><g><g/><text fill="black" stroke="none" font-family="sans-serif" font-size="11pt" font-style="normal" font-weight="normal" text-decoration="normal" x="583.4584098908936" y="112.549550737" text-anchor="start" dominant-baseline="alphabetic" xml:space="preserve">Offsetting App</text></g><path fill="none" stroke="none"/><g><path fill="white" stroke="black" paint-order="fill stroke markers" d=" M 925.1159099335543 84.779705127 L 1034.3466339192614 84.779705127 L 1034.3466339192614 128.884754037 L 925.1159099335543 128.884754037 L 925.1159099335543 84.779705127 Z" stroke-miterlimit="10" stroke-width="2.613632528" stroke-dasharray=""/></g><g><g/><text fill="black" stroke="none" font-family="sans-serif" font-size="11pt" font-style="normal" font-weight="normal" text-decoration="normal" x="942.8396055140544" y="112.549550737" text-anchor="start" dominant-baseline="alphabetic" xml:space="preserve">Wallet App</text></g><path fill="none" stroke="none"/><g><path fill="white" stroke="black" paint-order="fill stroke markers" d=" M 1063.696184051979 84.779705127 L 1217.4102454400297 84.779705127 L 1217.4102454400297 128.884754037 L 1063.696184051979 128.884754037 L 1063.696184051979 84.779705127 Z" stroke-miterlimit="10" stroke-width="2.613632528" stroke-dasharray=""/></g><g><g/><text fill="black" stroke="none" font-family="sans-serif" font-size="11pt" font-style="normal" font-weight="normal" text-decoration="normal" x="1081.4198796324788" y="112.549550737" text-anchor="start" dominant-baseline="alphabetic" xml:space="preserve">Stellarcarbon API</text></g><g><path fill="white" stroke="black" paint-order="fill stroke markers" d=" M 1328.2143570095795 96.867755569 L 1328.2143570095795 62.563828639 L 1375.9131506455797 62.563828639 L 1375.9131506455797 96.867755569" stroke-miterlimit="10" stroke-width="2.7769845610000004" stroke-dasharray=""/><path fill="white" stroke="black" paint-order="fill stroke markers" d=" M 1375.9131506455797 61.3713587981 L 1375.911958185676 61.47916934301662 L 1375.90838092521 61.58696910696859 L 1375.9024192219044 61.69474731006935 L 1375.8940736719253 61.8024931745884 L 1375.88334510982 61.91019592602908 L 1375.8702346084362 62.017844794206 L 1375.854743478813 62.125429014322044 L 1375.8368732700503 62.232937828044854 L 1375.8166257691544 62.34036048458265 L 1375.794003000858 62.44768624175929 L 1375.7690072274197 62.55490436708851 L 1375.7416409483958 62.66200413884712 L 1375.711906900391 62.76897484714718 L 1375.679808056786 62.87580579500701 L 1375.6453476274378 62.982486299420856 L 1375.608529058361 63.08900569242717 L 1375.5693560313819 63.19535332217542 L 1375.52783246377 63.30151855399125 L 1375.483962507848 63.40749077143996 L 1375.4377505505747 63.5132593773881 L 1375.3892012131073 63.618813795063225 L 1375.3383193503394 63.724143469111524 L 1375.2851100504142 63.82923786665337 L 1375.2295786342181 63.93408647833659 L 1375.1717306548462 64.03867881938739 L 1375.111571897048 64.1430044306588 L 1375.0491083766492 64.24705287967667 L 1374.9843463399502 64.35081376168277 L 1374.9172922631 64.45427670067541 L 1374.847952851451 64.55743135044686 L 1374.7763350388866 64.66026739561813 L 1374.702445987128 64.7627745526704 L 1374.6262930850187 64.86494257097338 L 1374.547883947786 64.96676123381039 L 1374.467226416278 65.06822035939997 L 1374.3843285561804 65.16930980191414 L 1374.2991986572106 65.27001945249287 L 1374.2118452322873 65.37033924025505 L 1374.12227701668 65.47025913330548 L 1374.0305029671358 65.56976913973813 L 1373.9365322609835 65.66885930863528 L 1373.840374295215 65.7675197310626 L 1373.7420386855467 65.86574054106009 L 1373.641535265458 65.96351191662859 L 1373.5388740852068 66.06082408071202 L 1373.4340654108257 66.15766730217506 L 1373.327119723095 66.25403189677627 L 1373.218047716494 66.3499082281365 L 1373.1068602981327 66.4452867087025 L 1372.99356858666 66.54015780070569 L 1372.8781839111532 66.63451201711595 L 1372.7607178099831 66.72833992259025 L 1372.6411820296623 66.82163213441623 L 1372.519588523669 66.91437932345046 L 1372.3959494512526 67.00657221505134 L 1372.2702771762172 67.0982015900065 L 1372.1425842656856 67.18925828545483 L 1372.0128834888428 67.27973319580266 L 1371.8811878156578 67.36961727363435 L 1371.7475104155885 67.45890153061701 L 1371.6118646562636 67.54757703839935 L 1371.4742641021458 67.6356349295045 L 1371.3347225131758 67.72306639821673 L 1371.1932538433966 67.80986270146201 L 1371.0498722395569 67.89601515968236 L 1370.9045920396975 67.98151515770375 L 1370.7574277717179 68.06635414559763 L 1370.6083941519216 68.15052363953589 L 1370.4575060835468 68.2340152226393 L 1370.3047786552745 68.31682054581911 L 1370.15022713972 68.39893132861202 L 1369.9938669919065 68.48033936000816 L 1369.8357138477184 68.56103649927225 L 1369.6757835223382 68.6410146767576 L 1369.5140920086649 68.72026589471311 L 1369.3506554757155 68.79878222808303 L 1369.185490267007 68.87655582529945 L 1369.0186128989228 68.95357890906746 L 1368.8500400590603 69.02984377714286 L 1368.679788604563 69.10534280310242 L 1368.507875560435 69.18006843710643 L 1368.334318117837 69.25401320665378 L 1368.1591336323686 69.32716971732913 L 1367.9823396223326 69.39953065354239 L 1367.8039537669824 69.47108877926021 L 1367.6239939047553 69.54183693872967 L 1367.442478031487 69.61176805719379 L 1367.2594242986142 69.68087514159897 L 1367.0748510113572 69.74915128129439 L 1366.888776626891 69.81658964872294 L 1366.7012197524991 69.88318350010411 L 1366.5121991437125 69.94892617610824 L 1366.3217337024346 70.01381110252252 L 1366.1298424750507 70.07783179090838 L 1365.936544650524 70.14098183925032 L 1365.7418595584754 70.20325493259614 L 1365.5458066672522 70.26464484368842 L 1365.3484055819802 70.32514543358717 L 1365.149676042603 70.38475065228383 L 1364.9496379219092 70.44345453930622 L 1364.7483112235443 70.50125122431453 L 1364.5457160800102 70.55813492768844 L 1364.3418727506526 70.61409996110503 L 1364.136801619634 70.66914072810756 L 1363.9305231938974 70.72325172466522 L 1363.723058101113 70.77642753972344 L 1363.5144270876174 70.82866285574504 L 1363.3046510163379 70.87995244924193 L 1363.0937508647069 70.9302911912975 L 1362.881747722564 70.9796740480795 L 1362.6686627900463 71.0280960813434 L 1362.4545173754698 71.07555244892625 L 1362.2393328931976 71.12203840523081 L 1362.0231308614984 71.16754930170019 L 1361.8059329003952 71.21208058728268 L 1361.587760729503 71.25562780888683 L 1361.3686361658577 71.29818661182675 L 1361.1485811217324 71.33975274025764 L 1360.9276176024482 71.38032203760127 L 1360.7057677041732 71.41989044696174 L 1360.4830536117122 71.45845401153106 L 1360.2594975962888 71.49600887498494 L 1360.0351220133182 71.5325512818683 L 1359.8099493001719 71.56807757797091 L 1359.5840019739335 71.60258421069277 L 1359.3573026291474 71.63606772939937 L 1359.1298739355589 71.66852478576672 L 1358.9017386358482 71.69995213411627 L 1358.6729195433547 71.73034663173934 L 1358.4434395397975 71.7597052392115 L 1358.2133215729855 71.78802502069648 L 1357.9825886545234 71.81530314423973 L 1357.751263857511 71.84153688205163 L 1357.5193703142352 71.86672361078024 L 1357.286931213857 71.8908608117737 L 1357.053969800093 71.913946071332 L 1356.82050936889 71.93597708094846 L 1356.586573266097 71.95695163754044 L 1356.3521848851292 71.97686764366978 L 1356.1173676646292 71.99572310775245 L 1355.8821450861235 72.01351614425778 L 1355.6465406716738 72.03024497389691 L 1355.4105779815256 72.04590792380084 L 1355.1742806117509 72.06050342768764 L 1354.9376721918898 72.07403002601906 L 1354.7007763825873 72.08648636614654 L 1354.4636168732268 72.09787120244648 L 1354.2262173795616 72.1081833964447 L 1353.9886016413432 72.11742191693043 L 1353.7507934199475 72.12558584005929 L 1353.5128164959985 72.13267434944576 L 1353.2746946669902 72.13868673624485 L 1353.0364517449068 72.14362239922286 L 1352.7981115538425 72.14748084481762 L 1352.5596979276174 72.1502616871878 L 1352.321234707396 72.15196464825142 L 1352.0827457393007 72.15258955771385 L 1351.8442548720302 72.15213635308466 L 1351.6057859544724 72.15060507968391 L 1351.3673628333202 72.14799589063767 L 1351.129009350687 72.1443090468627 L 1350.8907493417228 72.13954491704027 L 1350.6526066322294 72.1337039775794 L 1350.4146050362797 72.12678681256918 L 1350.1767683538349 72.11879411372033 L 1349.939120368365 72.10972668029609 L 1349.7016848444705 72.09958541903224 L 1349.4644855255058 72.08837134404646 L 1349.2275461312054 72.07608557673689 L 1348.990890355311 72.06272934567005 L 1348.7545418632033 72.04830398645788 L 1348.5185242895343 72.0328109416243 L 1348.2828612358646 72.01625176046089 L 1348.0475762683036 71.99862809887196 L 1347.8126929151515 71.97994171920898 L 1347.5782346645483 71.96019449009434 L 1347.3442249621232 71.9393883862345 L 1347.110687208652 71.91752548822251 L 1346.877644757715 71.89460798232996 L 1346.6451209133634 71.87063816028832 L 1346.4131389277875 71.84561841905983 L 1346.1817219989928 71.81955126059778 L 1345.9508932684794 71.79243929159627 L 1345.7206758189277 71.7642852232296 L 1345.4910926718912 71.73509187088118 L 1345.262166785493 71.7048621538619 L 1345.033921052131 71.67359909511825 L 1344.8063782961883 71.64130582093009 L 1344.5795612717511 71.6079855605979 L 1344.3534926603324 71.57364164611994 L 1344.1281950686055 71.53827751185906 L 1343.9036910261416 71.50189669419922 L 1343.6800029831577 71.46450283119185 L 1343.4571533082717 71.42609966219209 L 1343.2351642862657 71.38669102748484 L 1343.0140581158564 71.34628086790075 L 1342.7938569074772 71.30487322442208 L 1342.5745826810648 71.26247223777868 L 1342.3562573638596 71.21908214803388 L 1342.1389027882115 71.17470729416048 L 1341.9225406893963 71.12935211360693 L 1341.707192703444 71.08302114185344 L 1341.4928803649736 71.0357190119586 L 1341.2796251050406 70.987450454096 L 1341.067448248993 70.93822029508118 L 1340.8563710143399 70.88803345788901 L 1340.6464145086286 70.8368949611614 L 1340.4375997273346 70.7848099187054 L 1340.2299475517623 70.73178353898187 L 1340.023478746956 70.67782112458457 L 1339.8182139596245 70.62292807170999 L 1339.614173716075 70.56710986961765 L 1339.411378420162 70.51037210008127 L 1339.2098483512464 70.4527204368305 L 1339.0096036621665 70.39416064498364 L 1338.810664377225 70.33469858047107 L 1338.6130503901843 70.27434018944969 L 1338.4167814622783 70.2130915077083 L 1338.2218772202366 70.15095866006402 L 1338.0283571543205 70.08794785974987 L 1337.8362406163758 70.02406540779336 L 1337.645546817896 69.95931769238642 L 1337.456294828102 69.89371118824668 L 1337.2685035720351 69.82725245596986 L 1337.0821918286645 69.7599481413738 L 1336.897378229009 69.69180497483389 L 1336.714081254275 69.62282977060998 L 1336.5323192340068 69.55302942616503 L 1336.3521103442552 69.4824109214753 L 1336.173472605759 69.41098131833243 L 1335.996423882143 69.3387477596372 L 1335.8209818781322 69.26571746868528 L 1335.6471641377807 69.19189774844492 L 1335.4749880427178 69.1172959808266 L 1335.3044708104096 69.04191962594494 L 1335.135629492437 68.96577622137262 L 1334.968480972791 68.88887338138663 L 1334.8030419661845 68.81121879620689 L 1334.6393290163805 68.73282023122718 L 1334.4773584945372 68.6536855262387 L 1334.3171465975718 68.573822594646 L 1334.1587093465407 68.49323942267567 L 1334.002062585037 68.41194406857777 L 1333.847221977606 68.32994466181995 L 1333.6942030081798 68.24724940227456 L 1333.5430209785275 68.16386655939866 L 1333.3936910067262 68.07980447140702 L 1333.2462280256486 67.99507154443839 L 1333.1006467814702 67.90967625171488 L 1332.9569618321937 67.8236271326946 L 1332.8151875461945 67.73693279221771 L 1332.675338100783 67.64960189964606 L 1332.5374274807873 67.56164318799608 L 1332.4014694771543 67.47306545306569 L 1332.2674776855713 67.38387755255452 L 1332.1354655051055 67.29408840517834 L 1332.0054461368652 67.20370698977703 L 1331.8774325826787 67.11274234441683 L 1331.7514376437948 67.02120356548647 L 1331.6274739196024 66.92909980678756 L 1331.5055538063707 66.83644027861922 L 1331.3856894960093 66.74323424685704 L 1331.2678929748492 66.64949103202653 L 1331.1521760224448 66.55522000837107 L 1331.0385502103948 66.46043060291444 L 1330.9270269011852 66.3651322945182 L 1330.8176172470546 66.2693346129338 L 1330.710332188877 66.17304713784955 L 1330.6051824550686 66.07627949793272 L 1330.5021785605156 65.97904136986665 L 1330.4013308055214 65.88134247738313 L 1330.3026492747772 65.78319259028999 L 1330.2061438363544 65.68460152349414 L 1330.1118241407157 65.58557913602012 L 1330.0196996197528 65.48613533002413 L 1329.9297794858408 65.38628004980393 L 1329.8420727309176 65.2860232808043 L 1329.7565881255864 65.18537504861862 L 1329.673334218236 65.08434541798623 L 1329.5923193341882 64.982944491786 L 1329.5135515748634 64.88118241002603 L 1329.437038816972 64.77906934882972 L 1329.3627887117264 64.67661551941809 L 1329.2908086840746 64.5738311670887 L 1329.22110593196 64.47072657019112 L 1329.1536874255994 64.36731203909913 L 1329.0885599067874 64.26359791517966 L 1329.0257298882216 64.15959456975868 L 1328.9652036528514 64.05531240308405 L 1328.90698725325 63.95076184328555 L 1328.8510865110086 63.84595334533201 L 1328.7975070161551 63.74089738998592 L 1328.7462541265945 63.63560448275524 L 1328.6973329675725 63.530085152842965 L 1328.6507484311649 63.42434995209415 L 1328.6065051757857 63.318409453940745 L 1328.5646076257244 63.2122742523443 L 1328.5250599707006 63.105954960736526 L 1328.487866165447 62.99946221095797 L 1328.453029929313 62.892806652194885 L 1328.4205547458935 62.78599894991426 L 1328.3904438626794 62.679049784797314 L 1328.3627002907342 62.57196985167143 L 1328.3373268043918 62.464769858440704 L 1328.3143259409799 62.357460525015114 L 1328.2937000005654 62.25005258223858 L 1328.2754510457253 62.14255677081588 L 1328.2595809013399 62.03498384023857 L 1328.2460911544104 61.92734454771006 L 1328.2349831539002 61.81964965706991 L 1328.2262580106 61.71190993771744 L 1328.2199165970171 61.6041361635348 L 1328.2159595472874 61.49633911180959 L 1328.2143872571128 61.38852956215717 L 1328.2151998837207 61.28071829544265 L 1328.2183973458493 61.172916092702856 L 1328.223979323755 61.06513373406823 L 1328.2319452592446 60.957381997684834 L 1328.2422943557315 60.84967165863649 L 1328.2550255783142 60.74201348786736 L 1328.2701376538814 60.6344182511048 L 1328.287629071238 60.526896707782825 L 1328.3074980812567 60.41945960996616 L 1328.3297426970535 60.31211770127506 L 1328.3543606941848 60.204881715810956 L 1328.381349610872 60.097762377083015 L 1328.4107067482453 59.99077039693585 L 1328.4424291706157 59.88391647447831 L 1328.4765137057675 59.7772112950136 L 1328.5129569452756 59.67066552897075 L 1328.5517552448464 59.56428983083758 L 1328.592904724682 59.45809483809524 L 1328.636401269869 59.35209117015452 L 1328.6822405307892 59.24628942729389 L 1328.7304179235543 59.14070018959944 L 1328.7809286304655 59.03533401590697 L 1328.8337676004942 58.93020144274604 L 1328.8889295497872 58.82531298328635 L 1328.9464089621958 58.72067912628645 L 1329.0062000898267 58.61631033504484 L 1329.0682969536167 58.51221704635366 L 1329.1326933439311 58.40840966945505 L 1329.1993828211848 58.30489858500019 L 1329.2683587164856 58.20169414401126 L 1329.3396141323014 58.098806666846365 L 1329.41314194315 57.996246442167475 L 1329.4889347963117 57.894023725911595 L 1329.5669851125642 57.79214874026516 L 1329.6472850869409 57.69063167264185 L 1329.7298266895114 57.58948267466382 L 1329.8146016661842 57.488711861146584 L 1329.901601539532 57.38832930908751 L 1329.9908176096405 57.28834505665816 L 1330.0822409549764 57.18876910220045 L 1330.175862433282 57.08961140322686 L 1330.2716726824872 56.99088187542464 L 1330.3696621216468 56.8925903916643 L 1330.4698209518986 56.794746781012314 L 1330.572139157443 56.6973608277482 L 1330.6766065065449 56.60044227038614 L 1330.7832125525563 56.5040008007011 L 1330.8919466349616 56.40804606275968 L 1331.002797880443 56.31258765195572 L 1331.1157552039683 56.217635114050736 L 1331.2308073098993 56.12319794421941 L 1331.3479426931215 56.029285586100016 L 1331.467149640194 55.93590743085011 L 1331.5884162305215 55.8430728162074 L 1331.7117303375458 55.75079102555599 L 1331.8370796299594 55.65907128699804 L 1331.964451572937 55.56792277243099 L 1332.0938334293908 55.47735459663031 L 1332.2252122612429 55.387375816338135 L 1332.3585749307194 55.29799542935749 L 1332.4939081016648 55.20922237365261 L 1332.6311982408747 55.12106552645507 L 1332.7704316194495 55.033533703376136 L 1332.9115943141674 54.94663565752517 L 1333.0546722088766 54.86038007863435 L 1333.1996509959067 54.77477559218967 L 1333.3465161775 54.689830758568455 L 1333.4952530672606 54.60555407218327 L 1333.6458467916236 54.52195396063252 L 1333.7982822913418 54.439038783857704 L 1333.9525443229927 54.35681683330739 L 1334.1086174605014 54.27529633110813 L 1334.2664860966843 54.19448542924221 L 1334.4261344448091 54.114392208732454 L 1334.5875465401743 54.03502467883419 L 1334.7507062417046 53.95639077623426 L 1334.9155972335664 53.878498364257396 L 1335.0822030267973 53.801355232079885 L 1335.250506960957 53.72496909395066 L 1335.4204922057922 53.649347588419886 L 1335.5921417629206 53.57449827757509 L 1335.7654384675288 53.50042864628498 L 1335.9403649900914 53.42714610145097 L 1336.1169038381015 53.35465797126647 L 1336.2950373578217 53.28297150448409 L 1336.4747477360481 53.21209386969077 L 1336.6560170018931 53.14203215459092 L 1336.838827028581 53.072793365297684 L 1337.0231595352611 53.00438442563227 L 1337.2089960888368 52.93681217643165 L 1337.3963181058073 52.870083374864436 L 1337.5851068541274 52.80420469375517 L 1337.775343455079 52.739182720917064 L 1337.9670088851612 52.67502395849323 L 1338.1600839779903 52.611734822306424 L 1338.354549426218 52.54932164121754 L 1338.5503857834615 52.48779065649267 L 1338.7475734662485 52.427148021179015 L 1338.9460927559746 52.36739979948956 L 1339.1459238008765 52.3085519661967 L 1339.3470466180165 52.25061040603471 L 1339.5494410952801 52.19358091311133 L 1339.7530869933883 52.13746919032833 L 1339.9579639479211 52.08228084881122 L 1340.1640514713538 52.02802140734818 L 1340.3713289551058 51.974696291838114 L 1340.5797756716013 51.922310834748146 L 1340.7893707763424 51.87087027458034 L 1341.0000933099934 51.82037975534783 L 1341.2119222004765 51.770844326060484 L 1341.424836265079 51.72226894021993 L 1341.638814212572 51.674658455324284 L 1341.8538346453392 51.62801763238236 L 1342.0698760615164 51.58235113543759 L 1342.2869168571422 51.5376635311016 L 1342.5049353283173 51.49395928809759 L 1342.723909673377 51.451242776813444 L 1342.9438179950687 51.409518268864694 L 1343.164638302744 51.368789936667355 L 1343.3863485145555 51.32906185302072 L 1343.6089264596674 51.29033799070003 L 1343.8323498804705 51.252622222059266 L 1344.0565964348086 51.21591831864385 L 1344.2816436982137 51.18022995081354 L 1344.5074691661464 51.14556068737539 L 1344.7340502562483 51.11191399522683 L 1344.9613643105995 51.079293239009054 L 1345.1893885979837 51.047701680770494 L 1345.418100316162 51.01714247964064 L 1345.6474765941537 50.98761869151416 L 1345.8774944945217 50.95913326874524 L 1346.1081310156678 50.93168905985244 L 1346.3393630941323 50.90528880923376 L 1346.5711676068997 50.87993515689227 L 1346.803521373712 50.85563063817208 L 1347.0364011593863 50.83237768350481 L 1347.2697836761379 50.81017861816654 L 1347.5036455859095 50.78903566204531 L 1347.7379635027053 50.768950929419105 L 1347.9727139949289 50.749926428744466 L 1348.2078735877265 50.7319640624556 L 1348.4434187653349 50.71506562677416 L 1348.6793259734325 50.69923281152964 L 1348.9155716214952 50.684467199990365 L 1349.152132085155 50.6707702687052 L 1349.3889837085628 50.658143387355835 L 1349.6261028067534 50.64658781861989 L 1349.863465668015 50.63610471804463 L 1350.1010485562585 50.62669513393135 L 1350.338827713394 50.61836000723063 L 1350.5767793617033 50.61110017144819 L 1350.8148797062202 50.604916352561574 L 1351.0531049371082 50.5998091689475 L 1351.2914312320431 50.595779131320086 L 1351.5298347585942 50.592826642679725 L 1351.768291676607 50.59095199827282 L 1352.006778140589 50.59015538556226 L 1352.245270302092 50.59043688420866 L 1352.483744312099 50.59179646606236 L 1352.7221763234072 50.594233995166334 L 1352.9605424930146 50.59774922776969 L 1353.198818984503 50.6023418123521 L 1353.4369819704214 50.60801128965893 L 1353.67500763467 50.61475709274719 L 1353.9128721748805 50.622578547042174 L 1354.1505518047973 50.63147487040497 L 1354.3880227566551 50.64144517321068 L 1354.6252612835572 50.6524884584373 L 1354.8622436618482 50.66460362176552 L 1355.0989461934878 50.67778945168912 L 1355.33534520842 50.69204462963607 L 1355.5714170669405 50.70736773010048 L 1355.8071381620603 50.72375722078505 L 1356.042484921866 50.74121146275439 L 1356.2774338118777 50.759728710598836 L 1356.5119613374027 50.77930711260903 L 1356.7460440458833 50.79994471096109 L 1356.979658529244 50.821639441912396 L 1357.2127814262312 50.844389136007905 L 1357.4453894247492 50.86819151829718 L 1357.6774592641923 50.893044208561825 L 1357.90896773777 50.91894472155353 L 1358.1398916948272 50.94589046724256 L 1358.3702080431615 50.973878751076825 L 1358.5998937513293 51.00290677425126 L 1358.8289258509517 51.03297163398772 L 1359.0572814390093 51.064070323825305 L 1359.284937680134 51.09619973392093 L 1359.5118718088906 51.129356651360375 L 1359.7380611320561 51.16353776047952 L 1359.9634830308862 51.198739643195935 L 1360.1881149633793 51.23495877935069 L 1360.411934466529 51.27219154706035 L 1360.6349191585714 51.31043422307917 L 1360.8570467412235 51.349682983171405 L 1361.078295001912 51.38993390249377 L 1361.298641815995 51.43118295598788 L 1361.518065148975 51.47342601878273 L 1361.7365430587015 51.51665886660727 L 1361.9540536975653 51.56087717621274 L 1362.1705753146841 51.60607652580503 L 1362.3860862580766 51.65225239548683 L 1362.6005649768279 51.69940016770967 L 1362.8139900232447 51.74751512773561 L 1363.0263400550007 51.79659246410874 L 1363.2375938372693 51.84662726913632 L 1363.4477302448486 51.89761453937955 L 1363.6567282642727 51.949549176153894 L 1363.8645669959137 52.00242598603895 L 1364.071225656072 52.0562396813978 L 1364.2766835790537 52.11098488090573 L 1364.4809202192378 52.16665611008844 L 1364.68391515313 52.22324780186939 L 1364.8856480814068 52.28075429712656 L 1365.0860988309428 52.339169845258354 L 1365.2852473568305 52.398488604758626 L 1365.483073744383 52.458704643800864 L 1365.6795582111267 52.51981194083135 L 1365.8746811087783 52.581804385171296 L 1366.068422925211 52.64467577762793 L 1366.2607642864045 52.708419831114405 L 1366.451685958383 52.77303017127848 L 1366.6411688491382 52.83850033713999 L 1366.8291940105391 52.90482378173691 L 1367.015742640226 52.97199387278003 L 1367.200796083492 53.040003893316246 L 1367.3843358351462 53.108847042400164 L 1367.566343541367 53.17851643577425 L 1367.7468010015348 53.24900510655722 L 1367.9256901700546 53.32030600594074 L 1368.1029931581586 53.39241200389429 L 1368.2786922356952 53.465315889878156 L 1368.4527698329036 53.5390103735645 L 1368.6252085421688 53.61348808556637 L 1368.7959911197638 53.68874157817461 L 1368.9651004875732 53.76476332610268 L 1369.1325197348008 53.84154572723915 L 1369.2982321196616 53.91908110340788 L 1369.4622210710554 53.99736170113587 L 1369.6244701902233 54.07637969242858 L 1369.784963252389 54.156127175552726 L 1369.9436842083796 54.236596175826456 L 1370.1006171862323 54.3177786464168 L 1370.2557464927797 54.39966646914434 L 1370.4090566152204 54.48225145529506 L 1370.5605322226702 54.56552534643915 L 1370.7101581676943 54.6494798152569 L 1370.8579194878232 54.73410646637139 L 1371.0038014070476 54.81939683718802 L 1371.1477893372976 54.9053423987408 L 1371.2898688798996 54.99193455654518 L 1371.4300258270184 55.079164651457546 L 1371.5682461630756 55.16702396054111 L 1371.704516066153 55.25550369793815 L 1371.8388219093738 55.344595015748695 L 1371.9711502622656 55.43428900491518 L 1372.1014878921033 55.52457669611344 L 1372.2298217652326 55.615449060649595 L 1372.3561390483733 55.706897011362926 L 1372.480427109902 55.79891140353456 L 1372.6026735211165 55.891483035801954 L 1372.7228660574772 55.98460265107904 L 1372.8409926998306 56.07826093748187 L 1372.9570416356114 56.17244852925987 L 1373.0710012600223 56.26715600773234 L 1373.1828601771958 56.36237390223035 L 1373.2926072013338 56.45809269104382 L 1373.4002313578249 56.55430280237361 L 1373.5057218843433 56.65099461528878 L 1373.6090682319245 56.74815846068861 L 1373.7102600660194 56.84578462226952 L 1373.8092872675293 56.943863337496715 L 1373.9061399338163 57.0423847985804 L 1374.0008083796947 57.14133915345658 L 1374.0932831383986 57.240716506772216 L 1374.1835549625293 57.34050692087479 L 1374.2716148249797 57.44070041680606 L 1374.3574539198369 57.54128697529992 L 1374.4410636632626 57.64225653778434 L 1374.5224356943527 57.74359900738722 L 1374.6015618759716 57.84530424994605 L 1374.678434295567 57.94736209502132 L 1374.7530452659612 58.04976233691358 L 1374.8253873261192 58.15249473568397 L 1374.8954532418954 58.25554901817823 L 1374.9632360067565 58.35891487905398 L 1375.0287288424825 58.46258198181127 L 1375.0919251998444 58.566539959826216 L 1375.152818759259 58.67077841738765 L 1375.2114034314213 58.77528693073668 L 1375.267673357913 58.88005504910905 L 1375.3216229117884 58.985072295780256 L 1375.3732466981364 59.09032816911312 L 1375.4225395546223 59.19581214360803 L 1375.4694965520007 59.301513670955444 L 1375.5141129946117 59.4074221810907 L 1375.5563844208477 59.513527083251056 L 1375.5963066036015 59.619817767034704 L 1375.6338755506881 59.72628360346185 L 1375.6690875052443 59.832913946037564 L 1375.7019389461036 59.939698131816456 L 1375.7324265881493 60.046625482468926 L 1375.7605473826432 60.153685305349015 L 1375.7862985175286 60.26086689456366 L 1375.8096774177136 60.36815953204325 L 1375.830681745328 60.47555248861345 L 1375.8493093999562 60.5830350250681 L 1375.8655585188485 60.69059639324311 L 1375.8794274771064 60.79822583709131 L 1375.8909148878456 60.905912593758 L 1375.9000196023349 61.01364589465726 L 1375.90674071011 61.12141496654876 L 1375.9110775390661 61.22920903261514 L 1375.9130296555236 61.337017313539604 M 1375.9131506455797 95.6752857281 L 1375.911958185676 95.78309627301661 L 1375.90838092521 95.89089603696858 L 1375.9024192219044 95.99867424006935 L 1375.8940736719253 96.1064201045884 L 1375.88334510982 96.21412285602908 L 1375.8702346084362 96.321771724206 L 1375.854743478813 96.42935594432204 L 1375.8368732700503 96.53686475804484 L 1375.8166257691544 96.64428741458265 L 1375.794003000858 96.75161317175929 L 1375.7690072274197 96.85883129708851 L 1375.7416409483958 96.96593106884711 L 1375.711906900391 97.07290177714718 L 1375.679808056786 97.17973272500701 L 1375.6453476274378 97.28641322942086 L 1375.608529058361 97.39293262242717 L 1375.5693560313819 97.49928025217542 L 1375.52783246377 97.60544548399125 L 1375.483962507848 97.71141770143996 L 1375.4377505505747 97.8171863073881 L 1375.3892012131073 97.92274072506322 L 1375.3383193503394 98.02807039911151 L 1375.2851100504142 98.13316479665336 L 1375.2295786342181 98.23801340833658 L 1375.1717306548462 98.34260574938737 L 1375.111571897048 98.4469313606588 L 1375.0491083766492 98.55097980967666 L 1374.9843463399502 98.65474069168278 L 1374.9172922631 98.7582036306754 L 1374.847952851451 98.86135828044685 L 1374.7763350388866 98.96419432561812 L 1374.702445987128 99.0667014826704 L 1374.6262930850187 99.16886950097337 L 1374.547883947786 99.27068816381038 L 1374.467226416278 99.37214728939998 L 1374.3843285561804 99.47323673191414 L 1374.2991986572106 99.57394638249288 L 1374.2118452322873 99.67426617025505 L 1374.12227701668 99.77418606330548 L 1374.0305029671358 99.87369606973812 L 1373.9365322609835 99.97278623863527 L 1373.840374295215 100.0714466610626 L 1373.7420386855467 100.1696674710601 L 1373.641535265458 100.2674388466286 L 1373.5388740852068 100.36475101071201 L 1373.4340654108257 100.46159423217506 L 1373.327119723095 100.55795882677627 L 1373.218047716494 100.65383515813649 L 1373.1068602981327 100.74921363870249 L 1372.99356858666 100.84408473070569 L 1372.8781839111532 100.93843894711594 L 1372.7607178099831 101.03226685259024 L 1372.6411820296623 101.12555906441622 L 1372.519588523669 101.21830625345046 L 1372.3959494512526 101.31049914505132 L 1372.2702771762172 101.4021285200065 L 1372.1425842656856 101.49318521545483 L 1372.0128834888428 101.58366012580265 L 1371.8811878156578 101.67354420363434 L 1371.7475104155885 101.762828460617 L 1371.6118646562636 101.85150396839936 L 1371.4742641021458 101.93956185950451 L 1371.3347225131758 102.02699332821673 L 1371.1932538433966 102.11378963146201 L 1371.0498722395569 102.19994208968237 L 1370.9045920396975 102.28544208770374 L 1370.7574277717179 102.37028107559762 L 1370.6083941519216 102.45445056953588 L 1370.4575060835468 102.53794215263929 L 1370.3047786552745 102.6207474758191 L 1370.15022713972 102.70285825861201 L 1369.9938669919065 102.78426629000816 L 1369.8357138477184 102.86496342927225 L 1369.6757835223382 102.9449416067576 L 1369.5140920086649 103.02419282471311 L 1369.3506554757155 103.10270915808303 L 1369.185490267007 103.18048275529944 L 1369.0186128989228 103.25750583906745 L 1368.8500400590603 103.33377070714286 L 1368.679788604563 103.4092697331024 L 1368.507875560435 103.48399536710642 L 1368.334318117837 103.55794013665377 L 1368.1591336323686 103.63109664732913 L 1367.9823396223326 103.70345758354237 L 1367.8039537669824 103.7750157092602 L 1367.6239939047553 103.84576386872968 L 1367.442478031487 103.91569498719377 L 1367.2594242986142 103.98480207159896 L 1367.0748510113572 104.05307821129438 L 1366.888776626891 104.12051657872294 L 1366.7012197524991 104.1871104301041 L 1366.5121991437125 104.25285310610823 L 1366.3217337024346 104.31773803252251 L 1366.1298424750507 104.38175872090837 L 1365.936544650524 104.44490876925032 L 1365.7418595584754 104.50718186259614 L 1365.5458066672522 104.5685717736884 L 1365.3484055819802 104.62907236358716 L 1365.149676042603 104.68867758228383 L 1364.9496379219092 104.7473814693062 L 1364.7483112235443 104.80517815431453 L 1364.5457160800102 104.86206185768845 L 1364.3418727506526 104.91802689110501 L 1364.136801619634 104.97306765810755 L 1363.9305231938974 105.02717865466522 L 1363.723058101113 105.08035446972343 L 1363.5144270876174 105.13258978574503 L 1363.3046510163379 105.18387937924192 L 1363.0937508647069 105.23421812129749 L 1362.881747722564 105.28360097807949 L 1362.6686627900463 105.33202301134341 L 1362.4545173754698 105.37947937892625 L 1362.2393328931976 105.4259653352308 L 1362.0231308614984 105.4714762317002 L 1361.8059329003952 105.51600751728267 L 1361.587760729503 105.55955473888682 L 1361.3686361658577 105.60211354182675 L 1361.1485811217324 105.64367967025764 L 1360.9276176024482 105.68424896760128 L 1360.7057677041732 105.72381737696173 L 1360.4830536117122 105.76238094153106 L 1360.2594975962888 105.79993580498493 L 1360.0351220133182 105.83647821186828 L 1359.8099493001719 105.8720045079709 L 1359.5840019739335 105.90651114069276 L 1359.3573026291474 105.93999465939936 L 1359.1298739355589 105.97245171576672 L 1358.9017386358482 106.00387906411626 L 1358.6729195433547 106.03427356173933 L 1358.4434395397975 106.0636321692115 L 1358.2133215729855 106.09195195069648 L 1357.9825886545234 106.11923007423972 L 1357.751263857511 106.14546381205162 L 1357.5193703142352 106.17065054078024 L 1357.286931213857 106.1947877417737 L 1357.053969800093 106.21787300133201 L 1356.82050936889 106.23990401094846 L 1356.586573266097 106.26087856754044 L 1356.3521848851292 106.28079457366978 L 1356.1173676646292 106.29965003775246 L 1355.8821450861235 106.31744307425777 L 1355.6465406716738 106.3341719038969 L 1355.4105779815256 106.34983485380084 L 1355.1742806117509 106.36443035768762 L 1354.9376721918898 106.37795695601905 L 1354.7007763825873 106.39041329614655 L 1354.4636168732268 106.40179813244647 L 1354.2262173795616 106.4121103264447 L 1353.9886016413432 106.42134884693041 L 1353.7507934199475 106.42951277005928 L 1353.5128164959985 106.43660127944577 L 1353.2746946669902 106.44261366624485 L 1353.0364517449068 106.44754932922287 L 1352.7981115538425 106.45140777481762 L 1352.5596979276174 106.45418861718778 L 1352.321234707396 106.45589157825142 L 1352.0827457393007 106.45651648771386 L 1351.8442548720302 106.45606328308465 L 1351.6057859544724 106.4545320096839 L 1351.3673628333202 106.45192282063768 L 1351.129009350687 106.44823597686269 L 1350.8907493417228 106.44347184704026 L 1350.6526066322294 106.43763090757939 L 1350.4146050362797 106.43071374256917 L 1350.1767683538349 106.42272104372033 L 1349.939120368365 106.41365361029608 L 1349.7016848444705 106.40351234903224 L 1349.4644855255058 106.39229827404645 L 1349.2275461312054 106.38001250673689 L 1348.990890355311 106.36665627567004 L 1348.7545418632033 106.35223091645787 L 1348.5185242895343 106.33673787162431 L 1348.2828612358646 106.32017869046089 L 1348.0475762683036 106.30255502887195 L 1347.8126929151515 106.28386864920897 L 1347.5782346645483 106.26412142009434 L 1347.3442249621232 106.2433153162345 L 1347.110687208652 106.22145241822251 L 1346.877644757715 106.19853491232995 L 1346.6451209133634 106.17456509028831 L 1346.4131389277875 106.14954534905984 L 1346.1817219989928 106.12347819059778 L 1345.9508932684794 106.09636622159626 L 1345.7206758189277 106.06821215322961 L 1345.4910926718912 106.03901880088118 L 1345.262166785493 106.0087890838619 L 1345.033921052131 105.97752602511825 L 1344.8063782961883 105.94523275093007 L 1344.5795612717511 105.91191249059789 L 1344.3534926603324 105.87756857611994 L 1344.1281950686055 105.84220444185907 L 1343.9036910261416 105.8058236241992 L 1343.6800029831577 105.76842976119184 L 1343.4571533082717 105.73002659219209 L 1343.2351642862657 105.69061795748485 L 1343.0140581158564 105.65020779790075 L 1342.7938569074772 105.60880015442207 L 1342.5745826810648 105.56639916777867 L 1342.3562573638596 105.52300907803387 L 1342.1389027882115 105.47863422416049 L 1341.9225406893963 105.43327904360692 L 1341.707192703444 105.38694807185344 L 1341.4928803649736 105.33964594195861 L 1341.2796251050406 105.291377384096 L 1341.067448248993 105.24214722508117 L 1340.8563710143399 105.19196038788901 L 1340.6464145086286 105.1408218911614 L 1340.4375997273346 105.08873684870541 L 1340.2299475517623 105.03571046898188 L 1340.023478746956 104.98174805458457 L 1339.8182139596245 104.92685500170998 L 1339.614173716075 104.87103679961766 L 1339.411378420162 104.81429903008126 L 1339.2098483512464 104.75664736683049 L 1339.0096036621665 104.69808757498365 L 1338.810664377225 104.63862551047107 L 1338.6130503901843 104.57826711944969 L 1338.4167814622783 104.51701843770829 L 1338.2218772202366 104.45488559006402 L 1338.0283571543205 104.39187478974986 L 1337.8362406163758 104.32799233779335 L 1337.645546817896 104.26324462238642 L 1337.456294828102 104.19763811824667 L 1337.2685035720351 104.13117938596986 L 1337.0821918286645 104.0638750713738 L 1336.897378229009 103.99573190483389 L 1336.714081254275 103.92675670060999 L 1336.5323192340068 103.85695635616503 L 1336.3521103442552 103.7863378514753 L 1336.173472605759 103.71490824833242 L 1335.996423882143 103.64267468963719 L 1335.8209818781322 103.56964439868527 L 1335.6471641377807 103.4958246784449 L 1335.4749880427178 103.4212229108266 L 1335.3044708104096 103.34584655594495 L 1335.135629492437 103.26970315137261 L 1334.968480972791 103.19280031138662 L 1334.8030419661845 103.11514572620688 L 1334.6393290163805 103.03674716122718 L 1334.4773584945372 102.9576124562387 L 1334.3171465975718 102.87774952464599 L 1334.1587093465407 102.79716635267567 L 1334.002062585037 102.71587099857777 L 1333.847221977606 102.63387159181995 L 1333.6942030081798 102.55117633227457 L 1333.5430209785275 102.46779348939864 L 1333.3936910067262 102.383731401407 L 1333.2462280256486 102.29899847443839 L 1333.1006467814702 102.21360318171489 L 1332.9569618321937 102.12755406269459 L 1332.8151875461945 102.04085972221772 L 1332.675338100783 101.95352882964605 L 1332.5374274807873 101.86557011799609 L 1332.4014694771543 101.77699238306569 L 1332.2674776855713 101.68780448255453 L 1332.1354655051055 101.59801533517833 L 1332.0054461368652 101.50763391977702 L 1331.8774325826787 101.41666927441683 L 1331.7514376437948 101.32513049548646 L 1331.6274739196024 101.23302673678755 L 1331.5055538063707 101.14036720861921 L 1331.3856894960093 101.04716117685703 L 1331.2678929748492 100.95341796202653 L 1331.1521760224448 100.85914693837105 L 1331.0385502103948 100.76435753291443 L 1330.9270269011852 100.66905922451821 L 1330.8176172470546 100.5732615429338 L 1330.710332188877 100.47697406784954 L 1330.6051824550686 100.3802064279327 L 1330.5021785605156 100.28296829986664 L 1330.4013308055214 100.18526940738312 L 1330.3026492747772 100.08711952028997 L 1330.2061438363544 99.98852845349413 L 1330.1118241407157 99.8895060660201 L 1330.0196996197528 99.79006226002413 L 1329.9297794858408 99.69020697980392 L 1329.8420727309176 99.5899502108043 L 1329.7565881255864 99.48930197861863 L 1329.673334218236 99.38827234798623 L 1329.5923193341882 99.28687142178599 L 1329.5135515748634 99.18510934002603 L 1329.437038816972 99.08299627882971 L 1329.3627887117264 98.98054244941808 L 1329.2908086840746 98.87775809708869 L 1329.22110593196 98.7746535001911 L 1329.1536874255994 98.67123896909912 L 1329.0885599067874 98.56752484517966 L 1329.0257298882216 98.46352149975867 L 1328.9652036528514 98.35923933308405 L 1328.90698725325 98.25468877328554 L 1328.8510865110086 98.14988027533201 L 1328.7975070161551 98.04482431998592 L 1328.7462541265945 97.93953141275524 L 1328.6973329675725 97.83401208284296 L 1328.6507484311649 97.72827688209414 L 1328.6065051757857 97.62233638394075 L 1328.5646076257244 97.5162011823443 L 1328.5250599707006 97.40988189073651 L 1328.487866165447 97.30338914095798 L 1328.453029929313 97.19673358219488 L 1328.4205547458935 97.08992587991426 L 1328.3904438626794 96.9829767147973 L 1328.3627002907342 96.87589678167143 L 1328.3373268043918 96.7686967884407 L 1328.3143259409799 96.66138745501512 L 1328.2937000005654 96.55397951223858 L 1328.2754510457253 96.44648370081588 L 1328.2595809013399 96.33891077023856 L 1328.2460911544104 96.23127147771005 L 1328.2349831539002 96.1235765870699 L 1328.2262580106 96.01583686771744 L 1328.2199165970171 95.90806309353479 L 1328.2159595472874 95.80026604180959 L 1328.2143872571128 95.69245649215716" stroke-miterlimit="10" stroke-width="2.7769845610000004" stroke-dasharray=""/></g><g><g/><text fill="black" stroke="none" font-family="sans-serif" font-size="11pt" font-style="normal" font-weight="normal" text-decoration="normal" x="1301.3054187140542" y="123.98419304699999" text-anchor="start" dominant-baseline="alphabetic" xml:space="preserve">Stellar Horizon</text></g></g><g><g><g><rect fill="white" stroke="none" x="58.31425977842936" y="161.555160637" width="346.3672205358984" height="21.23576429"/></g><text fill="black" stroke="none" font-family="sans-serif" font-size="11pt" font-style="normal" font-weight="normal" text-decoration="normal" x="60.76454027342936" y="176.25684360699998" text-anchor="start" dominant-baseline="alphabetic" xml:space="preserve">Anna selects an </text><text fill="black" stroke="none" font-family="sans-serif" font-size="11pt" font-style="normal" font-weight="bold" text-decoration="normal" x="171.73120744872233" y="176.25684360699998" text-anchor="start" dominant-baseline="alphabetic" xml:space="preserve">offset project</text><text fill="black" stroke="none" font-family="sans-serif" font-size="11pt" font-style="normal" font-weight="normal" text-decoration="normal" x="269.8978715722575" y="176.25684360699998" text-anchor="start" dominant-baseline="alphabetic" xml:space="preserve"> on stellarcarbon.io</text></g><g><path fill="none" stroke="black" paint-order="fill stroke markers" d=" M 38.9842692067627 182.790924927 L 410.5621535023278 182.790924927" stroke-miterlimit="10" stroke-width="1.3612669416666667" stroke-dasharray=""/><g transform="translate(424.01147088599447,182.790924927) translate(-424.01147088599447,-182.790924927)"><path fill="black" stroke="none" paint-order="stroke fill markers" d=" M 410.3988014693278 175.98459021866665 L 424.01147088599447 182.790924927 L 410.3988014693278 189.59725963533333 Z"/></g></g><g><g><rect fill="white" stroke="none" x="96.58926130430827" y="207.293729877" width="269.8172174841406" height="21.23576429"/></g><text fill="black" stroke="none" font-family="sans-serif" font-size="11pt" font-style="normal" font-weight="normal" text-decoration="normal" x="99.03954179930827" y="221.99541284699998" text-anchor="start" dominant-baseline="alphabetic" xml:space="preserve">Offsetting App deeplink for the project</text></g><g><path fill="none" stroke="black" paint-order="fill stroke markers" d=" M 424.01147088599447 228.529494167 L 52.433586590429364 228.529494167" stroke-miterlimit="10" stroke-width="1.3612669416666667" stroke-dasharray="6.53408132"/><g transform="translate(38.9842692067627,228.529494167) translate(-38.9842692067627,-228.529494167)"><path fill="black" stroke="none" paint-order="stroke fill markers" d=" M 52.59693862342937 221.72315945866666 L 38.9842692067627 228.529494167 L 52.59693862342937 235.33582887533333 Z"/></g></g><g><g><rect fill="white" stroke="none" x="235.2418956932324" y="253.032299117" width="202.11722053589844" height="21.23576429"/></g><text fill="black" stroke="none" font-family="sans-serif" font-size="11pt" font-style="normal" font-weight="normal" text-decoration="normal" x="237.6921761882324" y="267.733982087" text-anchor="start" dominant-baseline="alphabetic" xml:space="preserve">Visit and accept terms of use</text></g><g><path fill="none" stroke="black" paint-order="fill stroke markers" d=" M 38.9842692067627 274.268063407 L 620.1674253319339 274.268063407" stroke-miterlimit="10" stroke-width="1.3612669416666667" stroke-dasharray=""/><g transform="translate(633.6167427156006,274.268063407) translate(-633.6167427156006,-274.268063407)"><path fill="black" stroke="none" paint-order="stroke fill markers" d=" M 620.0040732989339 267.46172869866666 L 633.6167427156006 274.268063407 L 620.0040732989339 281.07439811533334 Z"/></g></g><g><g><rect fill="white" stroke="none" x="249.6668911155957" y="298.770868357" width="173.26722969117188" height="21.23576429"/></g><text fill="black" stroke="none" font-family="sans-serif" font-size="11pt" font-style="normal" font-weight="normal" text-decoration="normal" x="252.11717161059568" y="313.47255132699996" text-anchor="start" dominant-baseline="alphabetic" xml:space="preserve">List of supported wallets</text></g><g><path fill="none" stroke="black" paint-order="fill stroke markers" d=" M 633.6167427156006 320.006632647 L 52.433586590429364 320.006632647" stroke-miterlimit="10" stroke-width="1.3612669416666667" stroke-dasharray="6.53408132"/><g transform="translate(38.9842692067627,320.006632647) translate(-38.9842692067627,-320.006632647)"><path fill="black" stroke="none" paint-order="stroke fill markers" d=" M 52.59693862342937 313.20029793866667 L 38.9842692067627 320.006632647 L 52.59693862342937 326.81296735533334 Z"/></g></g><g><g><rect fill="white" stroke="none" x="291.2252254661816" y="344.509437597" width="90.15056099" height="21.23576429"/></g><text fill="black" stroke="none" font-family="sans-serif" font-size="11pt" font-style="normal" font-weight="normal" text-decoration="normal" x="293.6755059611816" y="359.21112056699997" text-anchor="start" dominant-baseline="alphabetic" xml:space="preserve">Select wallet</text></g><g><path fill="none" stroke="black" paint-order="fill stroke markers" d=" M 38.9842692067627 365.745201887 L 620.1674253319339 365.745201887" stroke-miterlimit="10" stroke-width="1.3612669416666667" stroke-dasharray=""/><g transform="translate(633.6167427156006,365.745201887) translate(-633.6167427156006,-365.745201887)"><path fill="black" stroke="none" paint-order="stroke fill markers" d=" M 620.0040732989339 358.93886717866667 L 633.6167427156006 365.745201887 L 620.0040732989339 372.55153659533335 Z"/></g></g><g><g><rect fill="white" stroke="none" x="739.9987283518831" y="390.248006837" width="133.3505579382422" height="21.23576429"/></g><text fill="black" stroke="none" font-family="sans-serif" font-size="11pt" font-style="normal" font-weight="normal" text-decoration="normal" x="742.4490088468831" y="404.94968980699997" text-anchor="start" dominant-baseline="alphabetic" xml:space="preserve">Request public key</text></g><g><path fill="none" stroke="black" paint-order="fill stroke markers" d=" M 633.6167427156006 411.483771127 L 966.2819545427412 411.483771127" stroke-miterlimit="10" stroke-width="1.3612669416666667" stroke-dasharray=""/><g transform="translate(979.7312719264079,411.483771127) translate(-979.7312719264079,-411.483771127)"><path fill="black" stroke="none" paint-order="stroke fill markers" d=" M 966.1186025097412 404.6774364186667 L 979.7312719264079 411.483771127 L 966.1186025097412 418.29010583533335 Z"/></g></g><g><g><rect fill="white" stroke="none" x="666.6570611765901" y="435.986576077" width="280.0338922888281" height="21.23576429"/></g><text fill="black" stroke="none" font-family="sans-serif" font-size="11pt" font-style="normal" font-weight="normal" text-decoration="normal" x="669.1073416715901" y="450.688259047" text-anchor="start" dominant-baseline="alphabetic" xml:space="preserve">Session approval and </text><text fill="black" stroke="none" font-family="sans-serif" font-size="11pt" font-style="normal" font-weight="bold" text-decoration="normal" x="818.7406729704182" y="450.688259047" text-anchor="start" dominant-baseline="alphabetic" xml:space="preserve">Stellar public key</text></g><g><path fill="none" stroke="black" paint-order="fill stroke markers" d=" M 979.7312719264079 457.222340367 L 647.0660600992672 457.222340367" stroke-miterlimit="10" stroke-width="1.3612669416666667" stroke-dasharray="6.53408132"/><g transform="translate(633.6167427156006,457.222340367) translate(-633.6167427156006,-457.222340367)"><path fill="black" stroke="none" paint-order="stroke fill markers" d=" M 647.2294121322673 450.4160056586667 L 633.6167427156006 457.222340367 L 647.2294121322673 464.02867507533335 Z"/></g></g><g><g><rect fill="white" stroke="none" x="214.0668926414746" y="481.725145317" width="244.46722663941406" height="21.23576429"/></g><text fill="black" stroke="none" font-family="sans-serif" font-size="11pt" font-style="normal" font-weight="normal" text-decoration="normal" x="216.51717313647458" y="496.426828287" text-anchor="start" dominant-baseline="alphabetic" xml:space="preserve">[optional] Provide name and </text><text fill="black" stroke="none" font-family="sans-serif" font-size="11pt" font-style="normal" font-weight="bold" text-decoration="normal" x="415.2671731364746" y="496.426828287" text-anchor="start" dominant-baseline="alphabetic" xml:space="preserve">email</text></g><g><path fill="none" stroke="black" paint-order="fill stroke markers" d=" M 38.9842692067627 502.960909607 L 620.1674253319339 502.960909607" stroke-miterlimit="10" stroke-width="1.3612669416666667" stroke-dasharray=""/><g transform="translate(633.6167427156006,502.960909607) translate(-633.6167427156006,-502.960909607)"><path fill="black" stroke="none" paint-order="stroke fill markers" d=" M 620.0040732989339 496.1545748986667 L 633.6167427156006 502.960909607 L 620.0040732989339 509.76724431533336 Z"/></g></g><g><g><rect fill="white" stroke="none" x="652.9467332872673" y="527.463714557" width="321.0672174841406" height="21.23576429"/></g><text fill="black" stroke="none" font-family="sans-serif" font-size="11pt" font-style="normal" font-weight="normal" text-decoration="normal" x="655.3970137822673" y="542.165397527" text-anchor="start" dominant-baseline="alphabetic" xml:space="preserve">Store name and email in browser localStorage</text></g><g><path fill="none" stroke="black" paint-order="fill stroke markers" d=" M 633.6167427156006 548.699478847 L 698.9575559156006 548.699478847 L 698.9575559156006 569.935243137 L 647.0660600992672 569.935243137" stroke-miterlimit="10" stroke-width="1.3612669416666667" stroke-dasharray=""/><g transform="translate(633.6167427156006,569.935243137) translate(-633.6167427156006,-569.935243137)"><path fill="black" stroke="none" paint-order="stroke fill markers" d=" M 647.2294121322673 563.1289084286667 L 633.6167427156006 569.935243137 L 647.2294121322673 576.7415778453334 Z"/></g></g><g><g><rect fill="white" stroke="none" x="218.4335575279492" y="594.438048087" width="235.73389686646485" height="21.23576429"/></g><text fill="black" stroke="none" font-family="sans-serif" font-size="11pt" font-style="normal" font-weight="normal" text-decoration="normal" x="220.8838380229492" y="609.139731057" text-anchor="start" dominant-baseline="alphabetic" xml:space="preserve">Specify amount in </text><text fill="black" stroke="none" font-family="sans-serif" font-size="11pt" font-style="normal" font-weight="bold" text-decoration="normal" x="347.85050519824216" y="609.139731057" text-anchor="start" dominant-baseline="alphabetic" xml:space="preserve">USD or tonnes</text></g><g><path fill="none" stroke="black" paint-order="fill stroke markers" d=" M 38.9842692067627 615.673812377 L 620.1674253319339 615.673812377" stroke-miterlimit="10" stroke-width="1.3612669416666667" stroke-dasharray=""/><g transform="translate(633.6167427156006,615.673812377) translate(-633.6167427156006,-615.673812377)"><path fill="black" stroke="none" paint-order="stroke fill markers" d=" M 620.0040732989339 608.8674776686667 L 633.6167427156006 615.673812377 L 620.0040732989339 622.4801470853333 Z"/></g></g><g><g><rect fill="white" stroke="none" x="821.9430325863883" y="640.1766173269999" width="130.28389228882813" height="21.23576429"/></g><text fill="black" stroke="none" font-family="sans-serif" font-size="11pt" font-style="normal" font-weight="normal" text-decoration="normal" x="824.3933130813883" y="654.8783002969999" text-anchor="start" dominant-baseline="alphabetic" xml:space="preserve">GET Carbon quote</text></g><g><path fill="none" stroke="black" paint-order="fill stroke markers" d=" M 633.6167427156006 661.4123816169999 L 1127.1038973623374 661.4123816169999" stroke-miterlimit="10" stroke-width="1.3612669416666667" stroke-dasharray=""/><g transform="translate(1140.5532147460042,661.4123816169999) translate(-1140.5532147460042,-661.4123816169999)"><path fill="black" stroke="none" paint-order="stroke fill markers" d=" M 1126.9405453293375 654.6060469086666 L 1140.5532147460042 661.4123816169999 L 1126.9405453293375 668.2187163253333 Z"/></g></g><g><g><rect fill="white" stroke="none" x="1159.883205317671" y="685.9151865669999" width="172.8505579382422" height="21.23576429"/></g><text fill="black" stroke="none" font-family="sans-serif" font-size="11pt" font-style="normal" font-weight="normal" text-decoration="normal" x="1162.333485812671" y="700.6168695369998" text-anchor="start" dominant-baseline="alphabetic" xml:space="preserve">GET CARBON asset state</text></g><g><path fill="none" stroke="black" paint-order="fill stroke markers" d=" M 1140.5532147460042 707.1509508569999 L 1338.6144364439128 707.1509508569999" stroke-miterlimit="10" stroke-width="1.3612669416666667" stroke-dasharray=""/><g transform="translate(1352.0637538275796,707.1509508569999) translate(-1352.0637538275796,-707.1509508569999)"><path fill="black" stroke="none" paint-order="stroke fill markers" d=" M 1338.451084410913 700.3446161486665 L 1352.0637538275796 707.1509508569999 L 1338.451084410913 713.9572855653332 Z"/></g></g><g><g><rect fill="white" stroke="none" x="1175.2498740188428" y="731.6537558069998" width="142.11722053589844" height="21.23576429"/></g><text fill="black" stroke="none" font-family="sans-serif" font-size="11pt" font-style="normal" font-weight="normal" text-decoration="normal" x="1177.7001545138428" y="746.3554387769998" text-anchor="start" dominant-baseline="alphabetic" xml:space="preserve">CARBON asset state</text></g><g><path fill="none" stroke="black" paint-order="fill stroke markers" d=" M 1352.0637538275796 752.8895200969998 L 1154.002532129671 752.8895200969998" stroke-miterlimit="10" stroke-width="1.3612669416666667" stroke-dasharray="6.53408132"/><g transform="translate(1140.5532147460042,752.8895200969998) translate(-1140.5532147460042,-752.8895200969998)"><path fill="black" stroke="none" paint-order="stroke fill markers" d=" M 1154.1658841626709 746.0831853886665 L 1140.5532147460042 752.8895200969998 L 1154.1658841626709 759.6958548053332 Z"/></g></g><g><g><rect fill="white" stroke="none" x="792.5763638852164" y="777.3923250469998" width="189.01722969117188" height="21.23576429"/></g><text fill="black" stroke="none" font-family="sans-serif" font-size="11pt" font-style="normal" font-weight="normal" text-decoration="normal" x="795.0266443802165" y="792.0940080169997" text-anchor="start" dominant-baseline="alphabetic" xml:space="preserve">Carbon price in USD/tonne</text></g><g><path fill="none" stroke="black" paint-order="fill stroke markers" d=" M 1140.5532147460042 798.6280893369998 L 647.0660600992672 798.6280893369998" stroke-miterlimit="10" stroke-width="1.3612669416666667" stroke-dasharray="6.53408132"/><g transform="translate(633.6167427156006,798.6280893369998) translate(-633.6167427156006,-798.6280893369998)"><path fill="black" stroke="none" paint-order="stroke fill markers" d=" M 647.2294121322673 791.8217546286664 L 633.6167427156006 798.6280893369998 L 647.2294121322673 805.4344240453331 Z"/></g></g><g><g><rect fill="white" stroke="none" x="196.30855371325194" y="823.1308942869997" width="279.98390449585935" height="21.23576429"/></g><text fill="black" stroke="none" font-family="sans-serif" font-size="11pt" font-style="normal" font-weight="normal" text-decoration="normal" x="198.75883420825193" y="837.8325772569997" text-anchor="start" dominant-baseline="alphabetic" xml:space="preserve">Display number of tonnes and total cost</text></g><g><path fill="none" stroke="black" paint-order="fill stroke markers" d=" M 633.6167427156006 844.3666585769997 L 52.433586590429364 844.3666585769997" stroke-miterlimit="10" stroke-width="1.3612669416666667" stroke-dasharray="6.53408132"/><g transform="translate(38.9842692067627,844.3666585769997) translate(-38.9842692067627,-844.3666585769997)"><path fill="black" stroke="none" paint-order="stroke fill markers" d=" M 52.59693862342937 837.5603238686664 L 38.9842692067627 844.3666585769997 L 52.59693862342937 851.1729932853331 Z"/></g></g><g><g><rect fill="white" stroke="none" x="146.02522470324217" y="868.8694635269997" width="380.5505625158789" height="21.23576429"/></g><text fill="black" stroke="none" font-family="sans-serif" font-size="11pt" font-style="normal" font-weight="normal" text-decoration="normal" x="148.47550519824216" y="883.5711464969996" text-anchor="start" dominant-baseline="alphabetic" xml:space="preserve">Provide an offsetting </text><text fill="black" stroke="none" font-family="sans-serif" font-size="11pt" font-style="normal" font-weight="bold" text-decoration="normal" x="295.3588364970703" y="883.5711464969996" text-anchor="start" dominant-baseline="alphabetic" xml:space="preserve">reason or message</text><text fill="black" stroke="none" font-family="sans-serif" font-size="11pt" font-style="normal" font-weight="normal" text-decoration="normal" x="432.8588364970703" y="883.5711464969996" text-anchor="start" dominant-baseline="alphabetic" xml:space="preserve">, and confirm</text></g><g><path fill="none" stroke="black" paint-order="fill stroke markers" d=" M 38.9842692067627 890.1052278169997 L 620.1674253319339 890.1052278169997" stroke-miterlimit="10" stroke-width="1.3612669416666667" stroke-dasharray=""/><g transform="translate(633.6167427156006,890.1052278169997) translate(-633.6167427156006,-890.1052278169997)"><path fill="black" stroke="none" paint-order="stroke fill markers" d=" M 620.0040732989339 883.2988931086663 L 633.6167427156006 890.1052278169997 L 620.0040732989339 896.911562525333 Z"/></g></g><g><g><rect fill="white" stroke="none" x="823.0596974728629" y="914.6080327669996" width="128.0505625158789" height="21.23576429"/></g><text fill="black" stroke="none" font-family="sans-serif" font-size="11pt" font-style="normal" font-weight="normal" text-decoration="normal" x="825.5099779678629" y="929.3097157369996" text-anchor="start" dominant-baseline="alphabetic" xml:space="preserve">POST Sink Carbon</text></g><g><path fill="none" stroke="black" paint-order="fill stroke markers" d=" M 633.6167427156006 935.8437970569996 L 1127.1038973623374 935.8437970569996" stroke-miterlimit="10" stroke-width="1.3612669416666667" stroke-dasharray=""/><g transform="translate(1140.5532147460042,935.8437970569996) translate(-1140.5532147460042,-935.8437970569996)"><path fill="black" stroke="none" paint-order="stroke fill markers" d=" M 1126.9405453293375 929.0374623486663 L 1140.5532147460042 935.8437970569996 L 1126.9405453293375 942.650131765333 Z"/></g></g><g><g><rect fill="white" stroke="none" x="1159.883205317671" y="960.3466020069995" width="172.8505579382422" height="21.23576429"/></g><text fill="black" stroke="none" font-family="sans-serif" font-size="11pt" font-style="normal" font-weight="normal" text-decoration="normal" x="1162.333485812671" y="975.0482849769995" text-anchor="start" dominant-baseline="alphabetic" xml:space="preserve">GET CARBON asset state</text></g><g><path fill="none" stroke="black" paint-order="fill stroke markers" d=" M 1140.5532147460042 981.5823662969996 L 1338.6144364439128 981.5823662969996" stroke-miterlimit="10" stroke-width="1.3612669416666667" stroke-dasharray=""/><g transform="translate(1352.0637538275796,981.5823662969996) translate(-1352.0637538275796,-981.5823662969996)"><path fill="black" stroke="none" paint-order="stroke fill markers" d=" M 1338.451084410913 974.7760315886662 L 1352.0637538275796 981.5823662969996 L 1338.451084410913 988.3887010053329 Z"/></g></g><g><g><rect fill="white" stroke="none" x="1175.2498740188428" y="1006.0851712469995" width="142.11722053589844" height="21.23576429"/></g><text fill="black" stroke="none" font-family="sans-serif" font-size="11pt" font-style="normal" font-weight="normal" text-decoration="normal" x="1177.7001545138428" y="1020.7868542169995" text-anchor="start" dominant-baseline="alphabetic" xml:space="preserve">CARBON asset state</text></g><g><path fill="none" stroke="black" paint-order="fill stroke markers" d=" M 1352.0637538275796 1027.3209355369995 L 1154.002532129671 1027.3209355369995" stroke-miterlimit="10" stroke-width="1.3612669416666667" stroke-dasharray="6.53408132"/><g transform="translate(1140.5532147460042,1027.3209355369995) translate(-1140.5532147460042,-1027.3209355369995)"><path fill="black" stroke="none" paint-order="stroke fill markers" d=" M 1154.1658841626709 1020.5146008286662 L 1140.5532147460042 1027.3209355369995 L 1154.1658841626709 1034.1272702453327 Z"/></g></g><g><g><rect fill="white" stroke="none" x="745.5930264828727" y="1051.8237404869997" width="282.98390449585935" height="21.23576429"/></g><text fill="black" stroke="none" font-family="sans-serif" font-size="11pt" font-style="normal" font-weight="normal" text-decoration="normal" x="748.0433069778727" y="1066.5254234569998" text-anchor="start" dominant-baseline="alphabetic" xml:space="preserve">Pre-signed transaction (XDR + metadata)</text></g><g><path fill="none" stroke="black" paint-order="fill stroke markers" d=" M 1140.5532147460042 1073.0595047769996 L 647.0660600992672 1073.0595047769996" stroke-miterlimit="10" stroke-width="1.3612669416666667" stroke-dasharray="6.53408132"/><g transform="translate(633.6167427156006,1073.0595047769996) translate(-633.6167427156006,-1073.0595047769996)"><path fill="black" stroke="none" paint-order="stroke fill markers" d=" M 647.2294121322673 1066.2531700686663 L 633.6167427156006 1073.0595047769996 L 647.2294121322673 1079.8658394853328 Z"/></g></g><g><g><rect fill="white" stroke="none" x="243.64188958971678" y="1097.5623097269997" width="185.3172327429297" height="21.23576429"/></g><text fill="black" stroke="none" font-family="sans-serif" font-size="11pt" font-style="normal" font-weight="normal" text-decoration="normal" x="246.09217008471677" y="1112.2639926969998" text-anchor="start" dominant-baseline="alphabetic" xml:space="preserve">Display transaction details</text></g><g><path fill="none" stroke="black" paint-order="fill stroke markers" d=" M 633.6167427156006 1118.7980740169996 L 52.433586590429364 1118.7980740169996" stroke-miterlimit="10" stroke-width="1.3612669416666667" stroke-dasharray="6.53408132"/><g transform="translate(38.9842692067627,1118.7980740169996) translate(-38.9842692067627,-1118.7980740169996)"><path fill="black" stroke="none" paint-order="stroke fill markers" d=" M 52.59693862342937 1111.9917393086664 L 38.9842692067627 1118.7980740169996 L 52.59693862342937 1125.6044087253329 Z"/></g></g><g><g><rect fill="white" stroke="none" x="222.25855829088866" y="1143.3008789669998" width="228.08389534058594" height="21.23576429"/></g><text fill="black" stroke="none" font-family="sans-serif" font-size="11pt" font-style="normal" font-weight="normal" text-decoration="normal" x="224.70883878588864" y="1158.0025619369999" text-anchor="start" dominant-baseline="alphabetic" xml:space="preserve">Accept the proposed transaction</text></g><g><path fill="none" stroke="black" paint-order="fill stroke markers" d=" M 38.9842692067627 1164.5366432569997 L 620.1674253319339 1164.5366432569997" stroke-miterlimit="10" stroke-width="1.3612669416666667" stroke-dasharray=""/><g transform="translate(633.6167427156006,1164.5366432569997) translate(-633.6167427156006,-1164.5366432569997)"><path fill="black" stroke="none" paint-order="stroke fill markers" d=" M 620.0040732989339 1157.7303085486665 L 633.6167427156006 1164.5366432569997 L 620.0040732989339 1171.342977965333 Z"/></g></g><g><g><rect fill="white" stroke="none" x="734.8737283518831" y="1189.0394482069999" width="143.6005579382422" height="21.23576429"/></g><text fill="black" stroke="none" font-family="sans-serif" font-size="11pt" font-style="normal" font-weight="normal" text-decoration="normal" x="737.3240088468831" y="1203.741131177" text-anchor="start" dominant-baseline="alphabetic" xml:space="preserve">Request to sign XDR</text></g><g><path fill="none" stroke="black" paint-order="fill stroke markers" d=" M 633.6167427156006 1210.2752124969998 L 966.2819545427412 1210.2752124969998" stroke-miterlimit="10" stroke-width="1.3612669416666667" stroke-dasharray=""/><g transform="translate(979.7312719264079,1210.2752124969998) translate(-979.7312719264079,-1210.2752124969998)"><path fill="black" stroke="none" paint-order="stroke fill markers" d=" M 966.1186025097412 1203.4688777886665 L 979.7312719264079 1210.2752124969998 L 966.1186025097412 1217.081547205333 Z"/></g></g><g><g><rect fill="white" stroke="none" x="397.3241541951204" y="1234.778017447" width="224.0672327429297" height="21.23576429"/></g><text fill="black" stroke="none" font-family="sans-serif" font-size="11pt" font-style="normal" font-weight="normal" text-decoration="normal" x="399.7744346901204" y="1249.479700417" text-anchor="start" dominant-baseline="alphabetic" xml:space="preserve">Display and request to sign XDR</text></g><g><path fill="none" stroke="black" paint-order="fill stroke markers" d=" M 979.7312719264079 1256.0137817369998 L 52.433586590429364 1256.0137817369998" stroke-miterlimit="10" stroke-width="1.3612669416666667" stroke-dasharray=""/><g transform="translate(38.9842692067627,1256.0137817369998) translate(-38.9842692067627,-1256.0137817369998)"><path fill="black" stroke="none" paint-order="stroke fill markers" d=" M 52.59693862342937 1249.2074470286666 L 38.9842692067627 1256.0137817369998 L 52.59693862342937 1262.820116445333 Z"/></g></g><g><g><rect fill="white" stroke="none" x="446.4908221333528" y="1280.516586687" width="125.73389686646485" height="21.23576429"/></g><text fill="black" stroke="none" font-family="sans-serif" font-size="11pt" font-style="normal" font-weight="normal" text-decoration="normal" x="448.94110262835284" y="1295.218269657" text-anchor="start" dominant-baseline="alphabetic" xml:space="preserve">Provide signature</text></g><g><path fill="none" stroke="black" paint-order="fill stroke markers" d=" M 38.9842692067627 1301.7523509769999 L 966.2819545427412 1301.7523509769999" stroke-miterlimit="10" stroke-width="1.3612669416666667" stroke-dasharray="6.53408132"/><g transform="translate(979.7312719264079,1301.7523509769999) translate(-979.7312719264079,-1301.7523509769999)"><path fill="black" stroke="none" paint-order="stroke fill markers" d=" M 966.1186025097412 1294.9460162686667 L 979.7312719264079 1301.7523509769999 L 966.1186025097412 1308.558685685333 Z"/></g></g><g><g><rect fill="white" stroke="none" x="706.682062702469" y="1326.255155927" width="199.98388923707031" height="21.23576429"/></g><text fill="black" stroke="none" font-family="sans-serif" font-size="11pt" font-style="normal" font-weight="normal" text-decoration="normal" x="709.132343197469" y="1340.9568388970001" text-anchor="start" dominant-baseline="alphabetic" xml:space="preserve">Fully signed transaction XDR</text></g><g><path fill="none" stroke="black" paint-order="fill stroke markers" d=" M 979.7312719264079 1347.490920217 L 647.0660600992672 1347.490920217" stroke-miterlimit="10" stroke-width="1.3612669416666667" stroke-dasharray="6.53408132"/><g transform="translate(633.6167427156006,1347.490920217) translate(-633.6167427156006,-1347.490920217)"><path fill="black" stroke="none" paint-order="stroke fill markers" d=" M 647.2294121322673 1340.6845855086667 L 633.6167427156006 1347.490920217 L 647.2294121322673 1354.2972549253332 Z"/></g></g><g><g><rect fill="white" stroke="none" x="874.006636477762" y="1371.993725167" width="237.66722358765625" height="21.23576429"/></g><text fill="black" stroke="none" font-family="sans-serif" font-size="11pt" font-style="normal" font-weight="normal" text-decoration="normal" x="876.456916972762" y="1386.6954081370002" text-anchor="start" dominant-baseline="alphabetic" xml:space="preserve">POST fully signed transaction XDR</text></g><g><path fill="none" stroke="black" paint-order="fill stroke markers" d=" M 633.6167427156006 1393.229489457 L 1338.6144364439128 1393.229489457" stroke-miterlimit="10" stroke-width="1.3612669416666667" stroke-dasharray=""/><g transform="translate(1352.0637538275796,1393.229489457) translate(-1352.0637538275796,-1393.229489457)"><path fill="black" stroke="none" paint-order="stroke fill markers" d=" M 1338.451084410913 1386.4231547486668 L 1352.0637538275796 1393.229489457 L 1338.451084410913 1400.0358241653332 Z"/></g></g><g><g><rect fill="white" stroke="none" x="913.5149677765901" y="1417.7322944070002" width="158.65056099" height="21.23576429"/></g><text fill="black" stroke="none" font-family="sans-serif" font-size="11pt" font-style="normal" font-weight="normal" text-decoration="normal" x="915.9652482715901" y="1432.4339773770002" text-anchor="start" dominant-baseline="alphabetic" xml:space="preserve">Transaction successful</text></g><g><path fill="none" stroke="black" paint-order="fill stroke markers" d=" M 1352.0637538275796 1438.968058697 L 647.0660600992672 1438.968058697" stroke-miterlimit="10" stroke-width="1.3612669416666667" stroke-dasharray="6.53408132"/><g transform="translate(633.6167427156006,1438.968058697) translate(-633.6167427156006,-1438.968058697)"><path fill="black" stroke="none" paint-order="stroke fill markers" d=" M 647.2294121322673 1432.1617239886668 L 633.6167427156006 1438.968058697 L 647.2294121322673 1445.7743934053333 Z"/></g></g><g><g><rect fill="white" stroke="none" x="193.2918911155957" y="1463.4708636470002" width="286.01722969117185" height="21.23576429"/></g><text fill="black" stroke="none" font-family="sans-serif" font-size="11pt" font-style="normal" font-weight="normal" text-decoration="normal" x="195.74217161059568" y="1478.1725466170003" text-anchor="start" dominant-baseline="alphabetic" xml:space="preserve">Show that the transaction was successful</text></g><g><path fill="none" stroke="black" paint-order="fill stroke markers" d=" M 633.6167427156006 1484.7066279370001 L 52.433586590429364 1484.7066279370001" stroke-miterlimit="10" stroke-width="1.3612669416666667" stroke-dasharray="6.53408132"/><g transform="translate(38.9842692067627,1484.7066279370001) translate(-38.9842692067627,-1484.7066279370001)"><path fill="black" stroke="none" paint-order="stroke fill markers" d=" M 52.59693862342937 1477.900293228667 L 38.9842692067627 1484.7066279370001 L 52.59693862342937 1491.5129626453333 Z"/></g></g></g><g/><g/><g/><g/><g/><g/></g></svg>